<svg width="120" height="120" fill="none" xmlns="http://www.w3.org/2000/svg"><path d="m60 53.16 38-22v29l-38 22v19.5" stroke="#fff" stroke-width="7" stroke-linecap="round" stroke-linejoin="round"/><circle cx="60" cy="115.16" r="4" fill="#fff"/><path fill-rule="evenodd" clip-rule="evenodd" d="M60.5 8.29 60 8l-.5.29-38 22-.5.29v50.15l.5.3L54 99.82v-2.3L23 79.58V32.89l36 20.84v1.83l2-1.2V52.58l-.5-.29L24 31.16 60 10.3l37.5 21.71 1-1.73-38-22Zm.5 51.87-2 1.2v39.06l-.02-.01v2.3l.52.31.5.3.5-.3 38-22 .5-.29V66.16l-2 1.2v12.22l-36 20.84V60.16Zm38-5v5.2l-2 1.2v-6.4h2Z" fill="#fff"/></svg>