<svg width="120" height="120" viewBox="0 0 120 120" fill="none" xmlns="http://www.w3.org/2000/svg">
<path d="M60 53.1555L98 31.1555V60.1555L60 82.1555V101.656" stroke="white" stroke-width="7" stroke-linecap="round" stroke-linejoin="round"/>
<circle cx="60" cy="115.156" r="4" fill="white"/>
<path fill-rule="evenodd" clip-rule="evenodd" d="M60.501 8.29007L60 8L59.499 8.29007L21.499 30.2901L21 30.5789V31.1555V80.1555V80.7321L21.499 81.0209L54 99.8373V97.5263L23 79.5789V32.8899L59 53.7321V55.5555L61 54.3555V53.1555V52.5789L60.501 52.2901L23.9959 31.1555L60 10.311L97.499 32.0209L98.501 30.2901L60.501 8.29007ZM61 60.1603L59 61.3603V100.421L58.9776 100.408L58.9776 102.719L59.499 103.021L60 103.311L60.501 103.021L98.501 81.0209L99 80.7321V80.1555V66.1603L97 67.3603V79.5789L61 100.421V60.1603ZM99 55.1555V60.3555L97 61.5555V55.1555H99Z" fill="white"/>
</svg>
