<svg width="120" height="120" fill="none" xmlns="http://www.w3.org/2000/svg"><rect width="120" height="120" rx="18" fill="#1B1A1A"/><path d="m59.88 52.54 34.88-20.19v26.62l-34.88 20.2v17.9" stroke="#fff" stroke-width="7" stroke-linecap="round" stroke-linejoin="round"/><circle cx="59.88" cy="109.46" r="3.67" fill="#fff"/><path fill-rule="evenodd" clip-rule="evenodd" d="m60.38 11.29-.5-.29-.5.29-34.88 20.2-.5.28V77.91l.5.28 29.87 17.3v-2.31L26 76.75V34.08l32.88 19.04v1.68l2-1.2v-1.63l-.5-.3L27 32.36l32.88-19.04 34.38 19.9 1-1.73L60.38 11.3Zm.5 47.63-2 1.2v22.72h.06v15.3l.44.25.5.29.5-.3L95.26 78.2l.5-.28V64.42l-2 1.2v11.12L60.88 95.8V58.92Zm34.88-4.54v4.72l-2 1.2v-5.92h2Z" fill="#fff"/></svg>